<svg width="30" height="30" viewBox="0 0 30 30" fill="none" xmlns="http://www.w3.org/2000/svg">
<rect x="0.5" y="0.5" width="29" height="29" rx="14.5" stroke="#CCCCCC"/>
<path d="M20.4761 15.5C20.4761 15.0417 20.4151 14.5833 20.3135 14.1667L21.9797 12.9167L20.6792 10.5833L18.7895 11.4375C18.1597 10.8125 17.3875 10.3542 16.5138 10.0833L16.2903 8H13.6894L13.4659 10.1042C12.5922 10.3542 11.82 10.8333 11.1901 11.4583L9.30044 10.6042L8 12.9167L9.66618 14.1667C9.56459 14.6042 9.50363 15.0417 9.50363 15.5C9.50363 15.9583 9.56459 16.4167 9.66618 16.8333L8 18.0833L9.30044 20.4167L11.1901 19.5625C11.82 20.1875 12.5922 20.6458 13.4659 20.9167L13.6894 23H16.3106L16.5341 20.8958C17.4078 20.6458 18.18 20.1667 18.8099 19.5417L20.6996 20.3958L22 18.0625L20.3338 16.8125C20.4151 16.4167 20.4761 15.9583 20.4761 15.5ZM14.9898 18.1458C13.5675 18.1458 12.4093 16.9583 12.4093 15.5C12.4093 14.0417 13.5675 12.8542 14.9898 12.8542C16.4122 12.8542 17.5704 14.0417 17.5704 15.5C17.5704 16.9583 16.4122 18.1458 14.9898 18.1458Z" stroke="#777777" stroke-miterlimit="10" stroke-linecap="round" stroke-linejoin="round"/>
</svg>
