<svg width="15" height="15" viewBox="0 0 15 15" fill="none" xmlns="http://www.w3.org/2000/svg">
<g id="uil:check">
<rect width="15" height="15" fill="#0F6327"/>
<path id="Vector" d="M12.2824 4.19995C12.2195 4.13659 12.1448 4.0863 12.0624 4.05199C11.98 4.01767 11.8917 4 11.8024 4C11.7132 4 11.6249 4.01767 11.5425 4.05199C11.4601 4.0863 11.3853 4.13659 11.3225 4.19995L6.28652 9.2427L4.17073 7.12015C4.10548 7.05712 4.02846 7.00756 3.94406 6.9743C3.85967 6.94104 3.76954 6.92473 3.67884 6.9263C3.58814 6.92787 3.49863 6.94729 3.41544 6.98345C3.33224 7.01961 3.25698 7.0718 3.19395 7.13705C3.13092 7.20229 3.08137 7.27931 3.04811 7.36371C3.01485 7.44811 2.99853 7.53823 3.0001 7.62893C3.00167 7.71964 3.02109 7.80914 3.05725 7.89234C3.09341 7.97554 3.1456 8.0508 3.21085 8.11382L5.80658 10.7096C5.86942 10.7729 5.94418 10.8232 6.02656 10.8575C6.10893 10.8918 6.19728 10.9095 6.28652 10.9095C6.37576 10.9095 6.46411 10.8918 6.54648 10.8575C6.62886 10.8232 6.70362 10.7729 6.76646 10.7096L12.2824 5.19363C12.351 5.13033 12.4058 5.0535 12.4432 4.96799C12.4807 4.88248 12.5 4.79014 12.5 4.69679C12.5 4.60344 12.4807 4.5111 12.4432 4.42559C12.4058 4.34008 12.351 4.26325 12.2824 4.19995Z" fill="white"/>
</g>
</svg>
