<svg width="60" height="60" viewBox="0 0 60 60" fill="none" xmlns="http://www.w3.org/2000/svg">
<g id="Frame 4420">
<rect width="60" height="60" rx="30" fill="#F6F6F6"/>
<path id="Vector" fill-rule="evenodd" clip-rule="evenodd" d="M32.4444 41H27.5556C25.2807 41 24.1432 41 23.2227 40.7009C21.3622 40.0964 19.9036 38.6378 19.2991 36.7773C19 35.8568 19 32.2749 19 30V22.2925C19 21.1755 19 20.617 19.1761 20.1861C19.3508 19.7585 19.6436 19.4134 20.0064 19.2075C20.372 19 20.8459 19 21.7937 19C24.163 19 25.3477 19 26.2617 19.5187C27.1689 20.0336 27.9008 20.8962 28.3376 21.9654L28.3491 21.9935C28.7638 23.0079 29.6377 23.887 30.7335 23.8929C33.1096 23.9057 36.0747 23.9597 36.7773 24.188C38.6378 24.7925 40.0964 26.2511 40.7009 28.1116C41 29.0321 41 30.1695 41 32.4444C41 34.7193 41 35.8568 40.7009 36.7773C40.0964 38.6378 38.6378 40.0964 36.7773 40.7009C35.8568 41 34.7193 41 32.4444 41ZM25.1111 33.9722C24.6048 33.9722 24.1944 34.3826 24.1944 34.8889C24.1944 35.3951 24.6048 35.8056 25.1111 35.8056H34.8889C35.3951 35.8056 35.8056 35.3951 35.8056 34.8889C35.8056 34.3826 35.3951 33.9722 34.8889 33.9722H25.1111Z" fill="#999999"/>
</g>
</svg>
