<svg width="60" height="60" viewBox="0 0 60 60" fill="none" xmlns="http://www.w3.org/2000/svg">
<g id="Frame 4420">
<rect width="60" height="60" rx="30" fill="#F6F6F6"/>
<g id="Vector">
<path d="M29.9999 27.9387C28.1965 27.9387 26.7346 29.4006 26.7346 31.204C26.7346 33.0074 28.1965 34.4693 29.9999 34.4693C31.8033 34.4693 33.2653 33.0074 33.2653 31.204C33.2653 29.4006 31.8033 27.9387 29.9999 27.9387Z" fill="#999999"/>
<path fill-rule="evenodd" clip-rule="evenodd" d="M33.6673 20.3943C31.5758 18.5352 28.4241 18.5352 26.3326 20.3943L26.1158 20.587C25.5209 21.1159 24.7525 21.408 23.9565 21.408C21.3291 21.408 19.1992 23.5379 19.1992 26.1653V31.2495C19.1992 33.0947 19.1992 34.5411 19.3235 35.6886C19.4504 36.8596 19.714 37.8085 20.3026 38.6186C20.6589 39.109 21.0902 39.5403 21.5806 39.8967C22.3908 40.4853 23.3396 40.7488 24.5106 40.8757C25.6581 41 27.1045 41 28.9497 41H31.0501C32.8953 41 34.3417 41 35.4893 40.8757C36.6603 40.7488 37.6091 40.4853 38.4193 39.8967C38.9097 39.5403 39.341 39.109 39.6973 38.6186C40.2859 37.8085 40.5495 36.8596 40.6764 35.6886C40.8007 34.5411 40.8007 33.0947 40.8007 31.2496V26.1653C40.8007 23.5379 38.6708 21.408 36.0434 21.408C35.2474 21.408 34.479 21.1159 33.8841 20.587L33.6673 20.3943ZM25.2275 31.204C25.2275 28.5683 27.3642 26.4316 29.9999 26.4316C32.6357 26.4316 34.7724 28.5683 34.7724 31.204C34.7724 33.8397 32.6357 35.9764 29.9999 35.9764C27.3642 35.9764 25.2275 33.8397 25.2275 31.204ZM36.0283 27.1852C35.4734 27.1852 35.0235 26.7353 35.0235 26.1805C35.0235 25.6256 35.4734 25.1757 36.0283 25.1757C36.5831 25.1757 37.033 25.6256 37.033 26.1805C37.033 26.7353 36.5831 27.1852 36.0283 27.1852Z" fill="#999999"/>
</g>
</g>
</svg>
