<svg width="32" height="26" viewBox="0 0 32 26" fill="none" xmlns="http://www.w3.org/2000/svg">
<g id="Frame 4387">
<g id="Group">
<g id="Group_2">
<path id="Vector" d="M31.0454 23.1936C31.0454 24.2259 30.1938 25.0001 29.0583 25.0001H2.94218C1.80669 25.0001 0.955078 24.2259 0.955078 23.1936V6.41926C0.955078 5.38699 1.80669 4.61279 2.94218 4.61279H29.0583C30.1938 4.61279 31.0454 5.38699 31.0454 6.41926V23.1936Z" stroke="#666666" stroke-width="1.5" stroke-miterlimit="10"/>
</g>
<g id="Group_3">
<path id="Vector_2" d="M20.5423 4.0968C20.5423 4.35487 20.5423 4.61293 20.2584 4.61293H11.7423C11.4584 4.61293 11.1745 4.35487 11.4584 4.0968L12.5939 1.51613C12.5939 1.25807 13.1616 1 13.4455 1H18.8391C19.1229 1 19.6907 1.25807 19.6907 1.51613L20.5423 4.0968Z" stroke="#666666" stroke-width="1.5" stroke-miterlimit="10"/>
</g>
<path id="Vector_3" d="M24.5167 14.9358C24.5167 10.8068 20.8263 7.70996 16.0005 7.70996C11.4586 7.70996 7.48438 11.0648 7.48438 14.9358C7.48438 19.0649 11.1747 22.1617 16.0005 22.1617C20.8263 22.1617 24.5167 18.8068 24.5167 14.9358Z" stroke="#666666" stroke-width="1.5" stroke-miterlimit="10"/>
<path id="Vector_4" d="M21.1103 14.9355C21.1103 12.3548 18.8393 10.5483 16.0006 10.5483C13.1619 10.5483 11.1748 12.3548 11.1748 14.6774C11.1748 17 13.4458 18.8065 16.0006 18.8065C18.8393 19.0645 21.1103 17.2581 21.1103 14.9355Z" stroke="#666666" stroke-width="1.5" stroke-miterlimit="10"/>
<path id="Vector_5" d="M3.79395 6.67725V7.45145" stroke="#666666" stroke-width="1.5" stroke-miterlimit="10" stroke-linecap="round"/>
<path id="Vector_6" d="M6.34863 6.67725V7.45145" stroke="#666666" stroke-width="1.5" stroke-miterlimit="10" stroke-linecap="round"/>
</g>
</g>
</svg>
