<svg width="63" height="62" viewBox="0 0 63 62" fill="none" xmlns="http://www.w3.org/2000/svg">
<g id="Group">
<path id="Vector" d="M32.1553 17.5362H30.1168C29.0668 17.5362 28.1558 16.6744 28.1558 15.5753V2.46093C28.1558 1.36938 29.0252 0.5 30.1168 0.5H32.1553C33.2053 0.5 34.1162 1.36187 34.1162 2.46093V15.5753C34.1162 16.6669 33.2468 17.5362 32.1553 17.5362Z" fill="white" stroke="white"/>
<path id="Vector_2" d="M32.1553 61.5001H30.1168C29.0668 61.5001 28.1558 60.6382 28.1558 59.5392V46.4248C28.1558 45.3333 29.0252 44.4639 30.1168 44.4639H32.1553C33.2468 44.4639 34.1162 45.3333 34.1162 46.4248V59.5392C34.1162 60.6307 33.2468 61.5001 32.1553 61.5001Z" fill="#9F9F9F" stroke="white"/>
<path id="Vector_3" d="M17.6719 29.9807V32.0192C17.6719 33.0692 16.81 33.9801 15.7109 33.9801H2.59656C1.50502 33.9801 0.635632 33.1108 0.635632 32.0192V29.9807C0.635632 28.8892 1.50502 28.0198 2.59656 28.0198H15.7109C16.8025 28.0198 17.6719 28.8892 17.6719 29.9807Z" fill="#C9C9C9" stroke="white"/>
<path id="Vector_4" d="M20.8547 23.1996L20.5012 22.846L20.8547 23.1996C20.0836 23.9707 18.8578 23.9705 18.086 23.2441L18.0805 23.2389L18.0752 23.2335L8.79996 13.9583C8.02785 13.1862 8.02712 11.9539 8.79777 11.1809L10.2228 9.722L10.2228 9.72197L10.2269 9.71781C10.9998 8.94497 12.2337 8.94497 13.0065 9.71781L22.2817 18.993C23.0545 19.7658 23.0545 20.9998 22.2817 21.7726L20.8547 23.1996Z" fill="#EFEFEF" stroke="white"/>
<path id="Vector_5" d="M39.334 19.0031L39.3389 18.9979L39.3439 18.9929L48.6191 9.71769C49.3919 8.94485 50.6259 8.94485 51.3987 9.71769L52.8256 11.1446C53.5985 11.9175 53.5985 13.1514 52.8256 13.9242L43.5504 23.1994C42.7776 23.9723 41.5437 23.9723 40.7709 23.1994L39.3489 21.7774C38.5561 21.0251 38.5877 19.7932 39.334 19.0031Z" fill="#313131" stroke="white"/>
<path id="Vector_6" d="M20.8547 39.6836L22.2817 41.1106C23.0545 41.8834 23.0545 43.1173 22.2817 43.8902L13.0065 53.1654C12.2337 53.9382 10.9998 53.9382 10.2269 53.1654L8.79996 51.7384C8.02712 50.9656 8.02712 49.7317 8.79996 48.9588L18.0752 39.6836C18.848 38.9108 20.0819 38.9108 20.8547 39.6836Z" fill="#AFAFAF" stroke="white"/>
<path id="Vector_7" d="M39.3439 41.1108L40.7709 39.6839C41.5437 38.911 42.7776 38.911 43.5504 39.6839L52.8256 48.9591C53.5985 49.7319 53.5985 50.9658 52.8256 51.7387L51.3987 53.1656C50.6259 53.9385 49.3919 53.9385 48.6191 53.1656L39.3439 43.8904C38.5711 43.1176 38.5711 41.8837 39.3439 41.1108Z" fill="#595959" stroke="white"/>
<path id="Vector_8" d="M61.6357 29.9807V32.0192C61.6357 33.0692 60.7739 33.9801 59.6748 33.9801H46.5604C45.4689 33.9801 44.5995 33.1108 44.5995 32.0192V29.9807C44.5995 28.8892 45.4689 28.0198 46.5604 28.0198H59.6748C60.7739 28.0198 61.6357 28.9307 61.6357 29.9807Z" fill="#484848" stroke="white"/>
</g>
</svg>
