<svg width="32" height="24" viewBox="0 0 32 24" fill="none" xmlns="http://www.w3.org/2000/svg">
<g id="Frame 4386">
<g id="Group">
<g id="Group_2">
<path id="Vector" d="M31.0946 22.4359C31.0946 22.7179 30.7844 23 30.4741 23H9.99746C9.68721 23 9.37695 22.7179 9.37695 22.4359V8.89759C9.37695 8.61554 9.68721 8.3335 9.99746 8.3335H30.4741C30.7844 8.3335 31.0946 8.61554 31.0946 8.89759V22.4359Z" stroke="#666666" stroke-width="1.5" stroke-miterlimit="10"/>
</g>
<path id="Vector_2" d="M22.4075 17.6405C19.305 17.6405 16.5127 19.8969 16.5127 22.9994H28.3023C28.3023 19.8969 25.8203 17.6405 22.4075 17.6405Z" stroke="#666666" stroke-width="1.5" stroke-miterlimit="10"/>
<path id="Vector_3" d="M14.9615 19.6153L12.4795 18.7692" stroke="#666666" stroke-width="1.5" stroke-miterlimit="10" stroke-linecap="round"/>
<path id="Vector_4" d="M18.064 16.2309L16.5127 13.9745" stroke="#666666" stroke-width="1.5" stroke-miterlimit="10" stroke-linecap="round"/>
<path id="Vector_5" d="M22.7178 15.1026L23.0271 12.5642" stroke="#666666" stroke-width="1.5" stroke-miterlimit="10" stroke-linecap="round"/>
<path id="Vector_6" d="M26.751 16.5128L28.6125 14.5385" stroke="#666666" stroke-width="1.5" stroke-miterlimit="10" stroke-linecap="round"/>
<path id="Vector_7" d="M4.41309 20.1794V7.48723C4.41309 6.92313 4.72334 6.07699 5.34384 5.51289C5.96435 4.9488 6.58485 4.66675 7.20536 4.66675H25.2" stroke="#666666" stroke-width="1.5" stroke-miterlimit="10" stroke-linecap="round"/>
<path id="Vector_8" d="M1 16.5126V3.82048C1 3.25638 1 2.41024 1.62051 1.84614C2.24101 1.28205 2.86152 1 3.79227 1H21.7869" stroke="#666666" stroke-width="1.5" stroke-miterlimit="10" stroke-linecap="round"/>
</g>
</g>
</svg>
