<svg width="80" height="64" viewBox="0 0 80 64" fill="none" xmlns="http://www.w3.org/2000/svg">
<g id="Frame" clip-path="url(#clip0_198_675)">
<g id="Group">
<g id="Group_2">
<g id="Group_3">
<path id="Vector" d="M80 16.5111L73.0946 23.3398L72.8252 23.0843C64.0198 14.4241 52.3502 9.66815 39.9149 9.66815C27.5931 9.66815 15.9943 14.3532 7.2173 22.8713L7.18894 22.8997L6.93371 23.1553L6.6643 22.8997L0 16.3265C0.0850762 16.2413 0.184332 16.1562 0.269408 16.071C10.4644 6.1331 24.4594 0 39.9149 0C55.4555 0 69.5356 6.20408 79.7448 16.2555C79.8298 16.3407 79.9149 16.4259 80 16.5111Z" fill="#999999"/>
</g>
<g id="Group_4">
<path id="Vector_2" d="M53.3991 42.7891L46.9191 49.1777L46.749 49.3481L46.4937 49.6036L46.2243 49.3339C44.537 47.7012 42.3108 46.7926 39.9145 46.7926C37.66 46.7926 35.5189 47.6018 33.8599 49.0925L33.5338 49.4191L33.2644 49.1493L26.6143 42.5761C26.6993 42.4909 26.7986 42.4058 26.8837 42.3206C30.2584 39.1121 34.8525 37.1387 39.9145 37.1387C45.0758 37.1387 49.7408 39.183 53.1297 42.5051C53.2148 42.6187 53.314 42.7039 53.3991 42.7891Z" fill="#999999"/>
</g>
<g id="Group_5">
<path id="Vector_3" d="M66.6998 29.6571L60.0497 36.2303L59.7803 36.4859L59.5109 36.2303C54.2645 31.0768 47.3166 28.2516 39.9008 28.2516C32.5843 28.2516 25.7073 31.02 20.4751 36.0457L20.2057 36.3155L19.9363 36.0457L19.7661 35.8754L13.2861 29.4725C13.3712 29.3874 13.4705 29.288 13.5555 29.217C20.3333 22.6438 29.6349 18.5977 39.8866 18.5977C50.2376 18.5977 59.6101 22.729 66.4162 29.4016C66.5297 29.4725 66.6147 29.5719 66.6998 29.6571Z" fill="#999999"/>
</g>
<g id="Group_6">
<path id="Vector_4" d="M40.2834 64.0001C43.1496 64.0001 45.473 61.8008 45.473 59.0879C45.473 56.375 43.1496 54.1758 40.2834 54.1758C37.4172 54.1758 35.0938 56.375 35.0938 59.0879C35.0938 61.8008 37.4172 64.0001 40.2834 64.0001Z" fill="#999999"/>
</g>
</g>
<g id="Group_7">
<path id="Vector_5" d="M61.9352 59.3149C71.3324 59.3149 78.9504 51.6875 78.9504 42.2786C78.9504 32.8696 71.3324 25.2422 61.9352 25.2422C52.5379 25.2422 44.9199 32.8696 44.9199 42.2786C44.9199 51.6875 52.5379 59.3149 61.9352 59.3149Z" fill="#D93600"/>
<g id="Group_8">
<g id="Group_9">
<g id="Group_10">
<path id="Vector_6" d="M63.7637 51.919C63.7637 52.8702 62.9555 53.6368 61.9487 53.6368C60.942 53.6368 60.1338 52.8702 60.1338 51.919C60.1338 50.9678 60.942 50.2012 61.9487 50.2012C62.9555 50.2012 63.7637 50.9678 63.7637 51.919Z" fill="white"/>
</g>
</g>
<g id="Group_11">
<g id="Group_12">
<path id="Vector_7" d="M63.8205 32.7675C63.8205 33.2076 63.778 33.889 63.6929 34.7835C63.6079 35.6353 63.4944 36.6717 63.3668 37.8784C63.3384 38.1055 63.3101 38.3327 63.2959 38.574C63.2108 39.3975 63.1116 40.2777 62.9981 41.2289C62.9414 41.811 62.8705 42.4214 62.7996 43.0603L62.672 44.3238L62.3175 47.6743L62.2892 47.9299H61.5802L61.5518 47.6601L61.1974 44.3096L61.0697 43.0745C60.9988 42.4356 60.9421 41.811 60.8712 41.2147C60.772 40.2635 60.6727 39.3833 60.5876 38.574C60.5593 38.3327 60.5309 38.0914 60.5026 37.8642C60.375 36.6575 60.2615 35.6211 60.1764 34.7693C60.0914 33.889 60.0488 33.2076 60.0488 32.7817C60.0488 32.1286 60.1906 31.6743 60.5167 31.362C60.8287 31.0638 61.2966 30.9219 61.9489 30.9219C62.6153 30.9219 63.0832 31.0638 63.3952 31.3762C63.6787 31.6743 63.8205 32.1286 63.8205 32.7675Z" fill="white"/>
</g>
</g>
</g>
</g>
</g>
</g>
<defs>
<clipPath id="clip0_198_675">
<rect width="80" height="64" fill="white"/>
</clipPath>
</defs>
</svg>
