<svg width="60" height="60" viewBox="0 0 60 60" fill="none" xmlns="http://www.w3.org/2000/svg">
<g id="Frame 4420">
<rect width="60" height="60" rx="30" fill="#F6F6F6"/>
<path id="Vector" fill-rule="evenodd" clip-rule="evenodd" d="M24.9642 19.1396C26.2528 19 27.877 19 29.9489 19H30.0511C32.123 19 33.7472 19 35.0358 19.1396C36.3507 19.2821 37.4162 19.578 38.3259 20.2389C38.8766 20.6391 39.3609 21.1234 39.7611 21.6741C40.422 22.5838 40.7179 23.6493 40.8604 24.9642C41 26.2528 41 27.877 41 29.9489V30.0067C41 31.0608 41 31.9949 40.9829 32.8211C40.9326 35.2514 40.7425 36.9751 39.7611 38.3259C39.3609 38.8766 38.8766 39.3609 38.3259 39.7611C37.4162 40.422 36.3507 40.7179 35.0358 40.8604C33.7472 41 32.1231 41 30.0512 41H29.9489C27.877 41 26.2528 41 24.9642 40.8604C23.6493 40.7179 22.5838 40.422 21.6741 39.7611C21.1434 39.3755 20.6743 38.9117 20.2828 38.3856C20.2681 38.3658 20.2535 38.3459 20.2389 38.3259C19.578 37.4162 19.2821 36.3507 19.1396 35.0358C19 33.7472 19 32.123 19 30.0511V29.9489C19 27.877 19 26.2528 19.1396 24.9642C19.2821 23.6493 19.578 22.5838 20.2389 21.6741C20.6391 21.1234 21.1234 20.6391 21.6741 20.2389C22.5838 19.578 23.6493 19.2821 24.9642 19.1396ZM39.3024 31.9762L39.2313 31.9076C38.92 31.6085 38.6899 31.4061 38.4735 31.2525C36.0493 29.5312 32.7052 29.987 30.8301 32.2943C30.6036 32.573 30.3769 32.9443 30.0205 33.5676L29.4359 33.3846C28.0871 33.1149 27.4127 32.98 26.7937 32.9931C25.1373 33.0283 23.58 33.7899 22.5353 35.0759C22.187 35.5046 21.9046 36.0404 21.411 37.0245C21.4719 37.1323 21.5375 37.234 21.608 37.3312L21.6405 37.3753C21.9298 37.7641 22.2765 38.1069 22.6688 38.392C23.242 38.8084 23.9755 39.0511 25.1465 39.1779C26.3333 39.3065 27.8659 39.3077 30 39.3077C32.1341 39.3077 33.6667 39.3065 34.8535 39.1779C36.0245 39.0511 36.758 38.8084 37.3312 38.392C37.7382 38.0962 38.0962 37.7382 38.392 37.3312C39.0256 36.459 39.24 35.2491 39.291 32.7861C39.2963 32.5278 39.2999 32.2582 39.3024 31.9762ZM28.8718 28.8718C27.6256 28.8718 26.6154 27.8616 26.6154 26.6154C26.6154 25.3692 27.6256 24.359 28.8718 24.359C30.118 24.359 31.1282 25.3692 31.1282 26.6154C31.1282 27.8616 30.118 28.8718 28.8718 28.8718Z" fill="#999999"/>
</g>
</svg>
