<svg width="200" height="200" viewBox="0 0 200 200" fill="none" xmlns="http://www.w3.org/2000/svg">
<path d="M176.357 184.333H23.3866C15.2145 184.333 10.107 175.9 13.6823 168.744L88.2522 21.5444C92.0828 13.8777 103.319 13.6222 107.405 21.2889L185.806 168.489C189.892 175.644 184.529 184.333 176.357 184.333Z" stroke="#D93600" stroke-width="10" stroke-miterlimit="10" stroke-linecap="round" stroke-linejoin="round"/>
<path d="M100 158.777C105.642 158.777 110.215 154.201 110.215 148.555C110.215 142.91 105.642 138.333 100 138.333C94.3586 138.333 89.7852 142.91 89.7852 148.555C89.7852 154.201 94.3586 158.777 100 158.777Z" fill="#D93600"/>
<path d="M100.255 127.089C97.7016 127.089 95.4032 125.045 95.4032 122.489L91.5725 76.4891C91.0618 71.6335 95.1478 67.2891 100 67.2891C104.852 67.2891 108.938 71.3779 108.427 76.4891L105.107 122.489C105.107 125.045 102.809 127.089 100.255 127.089Z" fill="#D93600"/>
</svg>
