<svg width="40" height="29" viewBox="0 0 40 29" fill="none" xmlns="http://www.w3.org/2000/svg">
<path d="M39.0837 0.839218C38.8191 0.573299 38.5043 0.362232 38.1575 0.218194C37.8107 0.0741569 37.4387 0 37.0629 0C36.6872 0 36.3152 0.0741569 35.9683 0.218194C35.6215 0.362232 35.3067 0.573299 35.0421 0.839218L13.838 22.0042L4.92939 13.0956C4.65467 12.8311 4.33037 12.6231 3.97501 12.4835C3.61965 12.3439 3.24018 12.2754 2.85828 12.282C2.47637 12.2886 2.09951 12.3701 1.7492 12.5219C1.3989 12.6736 1.08201 12.8927 0.816637 13.1666C0.551262 13.4404 0.342596 13.7637 0.202552 14.1179C0.0625079 14.4721 -0.00617211 14.8504 0.000435235 15.2311C0.00704258 15.6118 0.0888075 15.9874 0.24106 16.3366C0.393313 16.6858 0.613073 17.0017 0.887792 17.2662L11.8172 28.1608C12.0818 28.4267 12.3966 28.6378 12.7434 28.7818C13.0902 28.9258 13.4622 29 13.838 29C14.2137 29 14.5857 28.9258 14.9326 28.7818C15.2794 28.6378 15.5942 28.4267 15.8588 28.1608L39.0837 5.0098C39.3726 4.74413 39.6032 4.42168 39.7609 4.06278C39.9186 3.70389 40 3.31632 40 2.92451C40 2.5327 39.9186 2.14513 39.7609 1.78623C39.6032 1.42734 39.3726 1.10489 39.0837 0.839218Z" fill="#D93600"/>
</svg>
