<svg width="335" height="80" viewBox="0 0 335 80" fill="none" xmlns="http://www.w3.org/2000/svg">
<g clip-path="url(#clip0_2102_76)">
<path d="M28.3339 43.7884C28.3339 35.6065 33.6369 28.6368 41.0611 26.3641C43.3339 21.5156 45.152 16.0611 46.5157 10.0005C46.9702 8.1823 46.6672 7.57624 46.6672 7.57624C46.6672 7.57624 46.6672 7.57624 46.5157 7.57624C26.6672 7.42472 10.4551 23.7884 10.4551 43.7884C10.4551 53.6368 14.3945 62.5762 20.7581 69.0914L36.2127 58.7884C31.5157 55.455 28.3339 50.0005 28.3339 43.7884Z" fill="#8BC53F"/>
<path d="M58.0299 9.24219L53.4845 26.6664C60.3027 29.3937 65.1512 35.9089 65.1512 43.7876C65.1512 53.9392 56.9693 62.121 46.8178 62.121C46.2118 62.121 45.6057 62.121 45.1512 61.9695C38.1815 68.0301 31.3633 71.5149 26.3633 73.6361C32.2724 77.5755 39.2421 79.9998 46.8178 79.9998C66.8178 79.9998 83.0299 63.7876 83.0299 43.7876C83.0299 27.727 72.5754 14.0907 58.0299 9.24219Z" fill="#8BC53F"/>
<path d="M113.94 29.2422H101.818V32.424H113.94V29.2422Z" fill="#005AA9"/>
<path d="M118.485 35H97.2725V38.3333H101.969C101.212 39.0909 100.606 39.8485 100.151 40.7576C99.6967 41.6667 99.5452 42.5758 99.5452 43.4848C99.5452 44.3939 99.6967 45.303 100.151 46.2121C100.606 47.1212 101.212 47.8788 101.818 48.6364C102.575 49.3939 103.485 49.8485 104.394 50.303C105.454 50.7576 106.515 50.9091 107.727 50.9091C108.939 50.9091 110 50.7576 111.06 50.303C112.121 49.8485 112.879 49.3939 113.636 48.6364C114.394 47.8788 115 47.1212 115.454 46.2121C115.909 45.303 116.06 44.3939 116.06 43.4848C116.06 42.5758 115.909 41.6667 115.454 40.7576C115 39.8485 114.394 39.0909 113.636 38.3333H118.333V35H118.485ZM110.606 46.2121C109.848 47.1212 108.939 47.5758 107.879 47.5758C106.818 47.5758 105.909 47.1212 105.151 46.2121C104.394 45.303 104.091 44.2424 104.091 43.0303C104.091 41.8182 104.394 40.7576 105.151 39.8485C105.909 38.9394 106.818 38.4848 107.879 38.4848C108.939 38.4848 109.848 38.9394 110.606 39.8485C111.363 40.7576 111.818 41.8182 111.818 43.0303C111.666 44.2424 111.363 45.303 110.606 46.2121Z" fill="#005AA9"/>
<path d="M103.636 63.7875V53.333H108.03V60.3027H126.666V63.7875H103.636Z" fill="#005AA9"/>
<path d="M125.757 54.848H121.515V28.4844H125.757V36.9692H130.909V40.4541H125.757V54.848Z" fill="#005AA9"/>
<path d="M161.212 29.5451C161.212 30.4542 161.061 31.5148 161.061 32.5754C160.909 33.636 160.909 34.6966 160.758 35.9087C160.606 36.9693 160.455 38.0299 160.303 39.0905C160.152 40.1511 160 41.0602 159.849 41.9693H165.758V45.4542H152.121V51.3633H160.758V64.3936H156.364V54.5451H136.97V51.2117H147.424V45.3026H132.879V41.8178H155.455C155.758 40.4542 155.909 38.939 156.212 37.4239C156.364 35.7572 156.515 34.3936 156.667 32.8784H137.424V29.3936H161.212V29.5451Z" fill="#005AA9"/>
<path d="M181.666 57.5755V49.2422H186.363V57.5755H200.454V60.9089H167.575V57.5755H181.666Z" fill="#005AA9"/>
<path d="M186.212 29.8477V34.2416C186.212 35.4537 186.515 36.6658 187.121 37.878C187.727 39.0901 188.636 40.3022 189.697 41.3628C190.757 42.4234 192.121 43.484 193.636 44.3931C195.151 45.3022 196.666 45.9083 198.333 46.5143L195.606 49.2416C192.727 48.3325 190.454 46.9689 188.484 45.4537C186.515 43.9386 185 42.1204 183.939 40.1507C182.878 42.1204 181.212 43.9386 179.242 45.4537C177.272 46.9689 174.848 48.181 172.121 49.2416L169.394 46.5143C171.06 46.0598 172.575 45.3022 174.091 44.3931C175.606 43.484 176.818 42.5749 178.03 41.3628C179.091 40.3022 180 39.0901 180.757 37.878C181.363 36.6658 181.818 35.4537 181.818 34.2416V29.8477H186.212Z" fill="#005AA9"/>
<path d="M214.848 29.3936V35.4542H206.818V29.3936H202.424V47.2723H219.09V29.3936H214.848ZM214.848 43.7875H206.818V38.939H214.848V43.7875Z" fill="#005AA9"/>
<path d="M226.97 54.6963C226.515 53.6357 225.757 52.8781 225 52.1205C224.242 51.363 223.182 50.7569 222.121 50.3024C221.061 49.8478 219.848 49.6963 218.485 49.6963C217.121 49.6963 215.909 49.9993 214.848 50.3024C213.788 50.7569 212.727 51.363 211.818 52.1205C211.061 52.8781 210.303 53.7872 209.848 54.6963C209.394 55.7569 209.091 56.8175 209.091 57.8781C209.091 58.9387 209.394 59.9993 209.848 61.0599C210.303 61.969 210.909 62.8781 211.818 63.6357C212.727 64.3933 213.636 64.9993 214.848 65.4539C215.909 65.9084 217.273 66.0599 218.485 66.0599C219.697 66.0599 220.909 65.9084 222.121 65.4539C223.182 64.9993 224.242 64.3933 225 63.6357C225.909 62.8781 226.515 61.969 226.97 61.0599C227.424 60.1508 227.727 59.0902 227.727 57.8781C227.727 56.666 227.424 55.6054 226.97 54.6963ZM221.818 61.2114C220.909 62.1205 219.697 62.5751 218.333 62.5751C216.97 62.5751 215.757 62.1205 214.848 61.2114C213.939 60.3024 213.485 59.0902 213.485 57.8781C213.485 56.666 213.939 55.4539 214.848 54.5448C215.757 53.6357 216.97 53.0296 218.333 53.0296C219.697 53.0296 220.909 53.4842 221.818 54.5448C222.727 55.4539 223.182 56.666 223.182 57.8781C223.182 59.0902 222.727 60.1508 221.818 61.2114Z" fill="#005AA9"/>
<path d="M228.485 49.6965H224.091V28.4844H228.485V35.9086H233.636V39.3935H228.485V49.6965Z" fill="#005AA9"/>
<path d="M254.091 34.8481C253.636 33.7875 252.878 32.8784 252.121 32.1208C251.212 31.3633 250.303 30.7572 249.242 30.1511C248.181 29.6966 246.969 29.3936 245.606 29.3936C244.242 29.3936 243.03 29.6966 241.969 30.1511C240.909 30.6057 239.848 31.2117 239.091 32.1208C238.333 32.8784 237.575 33.7875 237.121 34.8481C236.666 35.9087 236.363 36.9693 236.363 38.1814C236.363 39.3936 236.666 40.4542 237.121 41.5148C237.575 42.5754 238.181 43.4845 239.091 44.242C239.848 44.9996 240.909 45.6057 241.969 46.0602C243.03 46.5148 244.394 46.8178 245.606 46.8178C246.818 46.8178 248.03 46.5148 249.242 46.0602C250.303 45.6057 251.363 44.9996 252.121 44.242C252.878 43.4845 253.636 42.5754 254.091 41.5148C254.545 40.4542 254.848 39.3936 254.848 38.1814C254.848 37.1208 254.545 35.9087 254.091 34.8481ZM249.848 40.3026C249.545 40.9087 249.242 41.5148 248.939 41.9693C248.484 42.4239 248.03 42.8784 247.424 43.1814C246.818 43.4845 246.212 43.636 245.606 43.636C244.242 43.636 243.181 43.1814 242.272 42.1208C241.363 41.0602 240.909 39.8481 240.909 38.3329C240.909 36.8178 241.363 35.6057 242.272 34.5451C243.181 33.4845 244.242 32.8784 245.606 32.8784C246.818 32.8784 248.03 33.3329 248.939 34.5451C249.848 35.6057 250.303 36.8178 250.303 38.3329C250.151 38.939 250.151 39.6966 249.848 40.3026Z" fill="#005AA9"/>
<path d="M241.818 63.7875V52.4238H246.212V60.3026H264.849V63.7875H241.818Z" fill="#005AA9"/>
<path d="M278.182 63.7875V52.4238H282.576V60.3026H301.212V63.7875H278.182Z" fill="#005AA9"/>
<path d="M311.515 63.7876V55.3027H315.757V60.3027H334.848V63.7876H311.515Z" fill="#005AA9"/>
<path d="M263.939 28.4844V35.9086H269.09V39.3935H263.939V53.9389H259.696V28.4844H263.939Z" fill="#005AA9"/>
<path d="M291.363 33.4849H284.393V36.9697C284.393 38.1818 284.696 39.3939 285.151 40.4545C285.605 41.5152 286.211 42.5758 287.12 43.6364C287.878 44.5455 288.787 45.4545 289.848 46.3636C290.908 47.1212 291.969 47.8788 293.181 48.4848L289.999 51.0606C288.181 50 286.666 48.7879 285.302 47.5758C283.939 46.3636 282.878 45 282.272 43.6364C281.514 45.303 280.302 46.8182 278.939 48.1818C277.424 49.5455 275.757 50.7576 274.09 51.8182L270.757 49.2424C272.12 48.6364 273.333 47.8788 274.393 46.9697C275.605 46.0606 276.514 45.1515 277.424 44.0909C278.333 43.0303 278.939 41.9697 279.393 40.7576C279.848 39.5455 280.151 38.3333 280.151 36.9697V33.3333H273.181V30H291.363V33.4849Z" fill="#005AA9"/>
<path d="M296.211 40.4541H289.696V36.9692H296.211V28.4844H300.605V54.3935H296.211V40.4541Z" fill="#005AA9"/>
<path d="M313.484 53.7873V48.4842H305.454V45.1509H313.333C314.242 45.1509 315.303 45.1509 316.515 44.9994C317.727 44.9994 319.09 44.8479 320.303 44.6963C321.666 44.5448 322.878 44.3933 324.242 44.2418C325.606 44.0903 326.818 43.7873 327.878 43.6357V46.9691C326.363 47.2721 324.848 47.5751 323.03 47.7267C321.363 47.8782 319.545 48.0297 317.727 48.1812V53.6357H313.484V53.7873Z" fill="#005AA9"/>
<path d="M324.242 33.1813C323.787 32.2723 323.181 31.5147 322.424 30.7571C321.666 30.151 320.757 29.545 319.696 29.0904C318.636 28.6359 317.575 28.4844 316.363 28.4844C315.151 28.4844 313.939 28.6359 312.878 29.0904C311.817 29.545 310.908 29.9995 310.151 30.7571C309.393 31.5147 308.787 32.2723 308.333 33.1813C307.878 34.0904 307.727 34.9995 307.727 36.0601C307.727 37.1207 307.878 38.0298 308.333 38.9389C308.787 39.848 309.393 40.6056 310.151 41.2117C310.908 41.9692 311.817 42.4238 312.878 42.8783C313.939 43.3329 314.999 43.4844 316.363 43.4844C317.575 43.4844 318.636 43.3329 319.696 42.8783C320.757 42.4238 321.666 41.9692 322.424 41.2117C323.181 40.6056 323.787 39.6965 324.242 38.9389C324.696 38.0298 324.999 37.1207 324.999 36.0601C324.999 34.9995 324.696 34.0904 324.242 33.1813ZM319.242 38.9389C318.333 39.848 317.424 40.151 316.211 40.151C314.999 40.151 314.09 39.6965 313.181 38.9389C312.424 38.0298 311.969 37.1207 311.969 36.0601C311.969 34.9995 312.424 33.9389 313.181 33.1813C313.939 32.2723 314.999 31.9692 316.211 31.9692C317.424 31.9692 318.333 32.4238 319.242 33.1813C320.151 34.0904 320.454 34.9995 320.454 36.0601C320.605 37.1207 320.151 38.0298 319.242 38.9389Z" fill="#005AA9"/>
<path d="M330 52.7268H321.97V49.3935H330V28.4844H334.242V56.0601H330V52.7268Z" fill="#005AA9"/>
<path d="M65.6062 0H46.2123L45.4547 3.18182C49.6971 3.78788 51.2123 5.90909 50.1517 10.7576C41.8183 47.2727 14.8486 65.1515 14.8486 65.1515L14.0911 65.7576C14.5456 65.6061 14.6971 65.9091 14.2426 66.2121L13.6365 66.5152L13.3335 66.3636C13.3335 66.5151 13.3335 66.6667 13.3335 66.6667L13.485 66.8182L12.8789 66.9697L12.7274 66.6667C12.7274 67.5758 11.6668 67.5758 11.0608 67.7273C8.78803 68.9394 6.06075 69.697 3.485 70C4.39409 70.303 5.30318 69.5455 6.21227 69.8485C6.36378 70.303 6.06075 70.4545 6.06075 70.7576C5.30318 70.4545 5.00015 72.5758 4.24257 71.0606V71.3636C2.42439 71.3636 1.21227 72.2727 -0.151367 72.4242C2.12136 72.2727 4.39409 72.4242 6.5153 71.9697C7.5759 71.9697 8.78803 71.8182 9.84863 71.6667C10.0001 71.9697 9.69712 72.2727 9.69712 72.4242C8.93954 72.1212 8.63651 74.2424 7.87893 72.7273V73.0303C6.06075 73.0303 4.84863 73.7879 3.485 74.0909C5.75772 73.9394 8.03045 74.0909 10.1517 73.6364C12.5759 73.6364 15.0001 73.4848 17.1214 72.2727C17.2729 72.2727 17.7274 72.1212 17.7274 72.1212C21.2123 71.3636 53.3335 63.1818 66.8183 19.5455C67.4244 17.5758 69.3941 10.7576 70.3032 4.39394C70.6062 4.69697 71.5153 0 65.6062 0Z" fill="url(#paint0_linear_2102_76)"/>
</g>
<defs>
<linearGradient id="paint0_linear_2102_76" x1="22.4135" y1="64.4185" x2="54.9809" y2="16.2077" gradientUnits="userSpaceOnUse">
<stop stop-color="#0094D0"/>
<stop offset="1" stop-color="#0071BB"/>
</linearGradient>
<clipPath id="clip0_2102_76">
<rect width="334.848" height="80" fill="white"/>
</clipPath>
</defs>
</svg>
