<svg width="102" height="84" viewBox="0 0 102 84" fill="none" xmlns="http://www.w3.org/2000/svg">
<g opacity="0.1" clip-path="url(#clip0_251_782)">
<path d="M43.5206 61.3404H12.6292V34.7861C12.6292 33.1928 13.8683 31.9536 15.4616 31.9536H40.5996C42.1929 31.9536 43.4321 33.1928 43.4321 34.7861V61.3404H43.5206Z" stroke="black" stroke-width="5" stroke-miterlimit="10" stroke-linejoin="round"/>
<path d="M43.5206 49.3024V61.3404H12.6291V49.3024H3.15808V72.3161H12.6291H43.5206H52.9916V49.3024H43.5206Z" stroke="black" stroke-width="5" stroke-miterlimit="10" stroke-linejoin="round"/>
<path d="M12.6292 72.3161V84" stroke="black" stroke-width="5" stroke-miterlimit="10" stroke-linejoin="round"/>
<path d="M43.5205 72.3161V84" stroke="black" stroke-width="5" stroke-miterlimit="10" stroke-linejoin="round"/>
<path d="M87.7777 22.5711C88.8043 22.5711 89.6365 21.7389 89.6365 20.7123C89.6365 19.6858 88.8043 18.8535 87.7777 18.8535C86.7512 18.8535 85.9189 19.6858 85.9189 20.7123C85.9189 21.7389 86.7512 22.5711 87.7777 22.5711Z" fill="black"/>
<path d="M80.6081 22.5711C81.6347 22.5711 82.4669 21.7389 82.4669 20.7123C82.4669 19.6858 81.6347 18.8535 80.6081 18.8535C79.5815 18.8535 78.7493 19.6858 78.7493 20.7123C78.7493 21.7389 79.5815 22.5711 80.6081 22.5711Z" fill="black"/>
<path d="M73.4384 22.5711C74.465 22.5711 75.2972 21.7389 75.2972 20.7123C75.2972 19.6858 74.465 18.8535 73.4384 18.8535C72.4118 18.8535 71.5796 19.6858 71.5796 20.7123C71.5796 21.7389 72.4118 22.5711 73.4384 22.5711Z" fill="black"/>
<path d="M62.3741 20.4468C62.3741 10.3562 70.5175 2.21286 80.6081 2.21286C90.6987 2.21286 98.842 10.3562 98.842 20.4468C98.842 30.5374 90.6987 38.6807 80.6081 38.6807H62.3741L68.9242 34.432C64.9411 31.0685 62.3741 26.0232 62.3741 20.4468Z" stroke="black" stroke-width="5" stroke-miterlimit="10" stroke-linecap="round" stroke-linejoin="round"/>
</g>
<defs>
<clipPath id="clip0_251_782">
<rect width="100.11" height="84" fill="white" transform="translate(0.94519)"/>
</clipPath>
</defs>
</svg>
