<svg width="195" height="72" viewBox="0 0 195 72" fill="none" xmlns="http://www.w3.org/2000/svg">
<path d="M28.3438 16.1875C28.3828 29.5469 33.7734 42.5547 45.6094 47.6719L39.5156 55.6406C31.625 51.8125 26.3125 44.7031 23.3438 35.9141C20.2969 45.25 14.8281 52.9062 6.70312 56.8906L0.453125 48.7656C12.6406 43.2578 18.1875 29.5469 18.2656 16.1875V5.5625H28.3438V16.1875ZM37.6406 30.4844V22.4375H51.625V0.09375H61.4688V71.3438H51.625V30.4844H37.6406ZM194.531 0.09375V41.7344H184.609V32.6719H171.328V37.8281H137.578V5.32812H171.328V10.4844H184.609V0.09375H194.531ZM145.781 57.4375C145.781 48.6875 155.078 43.5703 170.234 43.6094C185.43 43.5703 194.727 48.6875 194.766 57.4375C194.727 66.2266 185.43 71.2266 170.234 71.1875C155.078 71.2266 145.781 66.2266 145.781 57.4375ZM147.5 29.9375H161.562V13.2188H147.5V29.9375ZM155.703 57.4375C155.703 61.5 160.82 63.6094 170.234 63.6094C179.688 63.6094 184.805 61.5 184.844 57.4375C184.805 53.2188 179.688 51.1875 170.234 51.1875C160.82 51.1875 155.703 53.2188 155.703 57.4375ZM171.328 24.625H184.609V18.375H171.328V24.625Z" fill="#EEEEEE"/>
</svg>
